<svg width="32" height="32" viewBox="0 0 32 32" fill="none" xmlns="http://www.w3.org/2000/svg">
<path d="M2 9.5C2 7.568 3.568 6 5.5 6H26.5C28.432 6 30 7.568 30 9.5V22.5C30 23.4283 29.6313 24.3185 28.9749 24.9749C28.3185 25.6313 27.4283 26 26.5 26H5.5C4.57174 26 3.6815 25.6313 3.02513 24.9749C2.36875 24.3185 2 23.4283 2 22.5V9.5ZM10.522 15.428C10.8784 15.428 11.2313 15.3578 11.5606 15.2214C11.8899 15.085 12.1891 14.8851 12.4411 14.6331C12.6931 14.3811 12.893 14.0819 13.0294 13.7526C13.1658 13.4233 13.236 13.0704 13.236 12.714C13.236 12.3576 13.1658 12.0047 13.0294 11.6754C12.893 11.3461 12.6931 11.0469 12.4411 10.7949C12.1891 10.5429 11.8899 10.343 11.5606 10.2066C11.2313 10.0702 10.8784 10 10.522 10C9.8022 10 9.11189 10.2859 8.60291 10.7949C8.09394 11.3039 7.808 11.9942 7.808 12.714C7.808 13.4338 8.09394 14.1241 8.60291 14.6331C9.11189 15.1421 9.8022 15.428 10.522 15.428ZM7.716 16.784C7.26089 16.784 6.82442 16.9648 6.5026 17.2866C6.18079 17.6084 6 18.0449 6 18.5C6.00007 19.2448 6.24909 19.9683 6.70751 20.5553C7.16592 21.1424 7.8074 21.5594 8.53 21.74L8.636 21.768C9.876 22.078 11.17 22.078 12.408 21.768L12.516 21.742C13.2386 21.5614 13.8801 21.1444 14.3385 20.5573C14.7969 19.9703 15.0459 19.2468 15.046 18.502C15.0463 18.2765 15.0021 18.0531 14.916 17.8447C14.8298 17.6363 14.7035 17.4469 14.5441 17.2873C14.3847 17.1278 14.1955 17.0012 13.9871 16.9148C13.7788 16.8285 13.5555 16.784 13.33 16.784H7.716ZM19 12C18.7348 12 18.4804 12.1054 18.2929 12.2929C18.1054 12.4804 18 12.7348 18 13C18 13.2652 18.1054 13.5196 18.2929 13.7071C18.4804 13.8946 18.7348 14 19 14H25C25.2652 14 25.5196 13.8946 25.7071 13.7071C25.8946 13.5196 26 13.2652 26 13C26 12.7348 25.8946 12.4804 25.7071 12.2929C25.5196 12.1054 25.2652 12 25 12H19ZM19 18C18.7348 18 18.4804 18.1054 18.2929 18.2929C18.1054 18.4804 18 18.7348 18 19C18 19.2652 18.1054 19.5196 18.2929 19.7071C18.4804 19.8946 18.7348 20 19 20H25C25.2652 20 25.5196 19.8946 25.7071 19.7071C25.8946 19.5196 26 19.2652 26 19C26 18.7348 25.8946 18.4804 25.7071 18.2929C25.5196 18.1054 25.2652 18 25 18H19Z" fill="black"/>
</svg>
