<svg width="24" height="24" viewBox="0 0 24 24" fill="none" xmlns="http://www.w3.org/2000/svg">
<path d="M22.1475 16.8525C22.2528 16.958 22.312 17.1009 22.312 17.25C22.312 17.3991 22.2528 17.542 22.1475 17.6475L19.8975 19.8975C19.7909 19.9969 19.6498 20.051 19.5041 20.0484C19.3584 20.0458 19.2193 19.9868 19.1163 19.8837C19.0132 19.7807 18.9542 19.6416 18.9516 19.4959C18.949 19.3502 19.0031 19.2091 19.1025 19.1025L20.3925 17.8125H18.8381C17.7932 17.8119 16.7634 17.5623 15.8341 17.0845C14.9048 16.6066 14.1028 15.9143 13.4944 15.0647L9.58406 9.58969C9.08066 8.88632 8.41702 8.31293 7.64803 7.91694C6.87905 7.52096 6.02683 7.31376 5.16187 7.31251H3C2.85082 7.31251 2.70774 7.25324 2.60225 7.14775C2.49676 7.04226 2.4375 6.89919 2.4375 6.75001C2.4375 6.60082 2.49676 6.45775 2.60225 6.35226C2.70774 6.24677 2.85082 6.18751 3 6.18751H5.16187C6.20682 6.18812 7.23658 6.43769 8.16587 6.91554C9.09515 7.39338 9.89721 8.08576 10.5056 8.93532L14.4159 14.4103C14.9193 15.1137 15.583 15.6871 16.352 16.0831C17.121 16.4791 17.9732 16.6863 18.8381 16.6875H20.3925L19.1025 15.3975C19.0031 15.2909 18.949 15.1498 18.9516 15.0041C18.9542 14.8584 19.0132 14.7194 19.1163 14.6163C19.2193 14.5132 19.3584 14.4542 19.5041 14.4516C19.6498 14.4491 19.7909 14.5031 19.8975 14.6025L22.1475 16.8525ZM13.5169 9.87657C13.6118 9.94517 13.726 9.98193 13.8431 9.98157C13.9328 9.98171 14.0211 9.96043 14.1009 9.9195C14.1806 9.87857 14.2494 9.81917 14.3016 9.74626L14.4131 9.58969C14.9168 8.88594 15.5809 8.3123 16.3504 7.9163C17.1199 7.5203 17.9727 7.31332 18.8381 7.31251H20.3925L19.1025 8.60251C19.0472 8.654 19.0029 8.7161 18.9722 8.7851C18.9414 8.8541 18.9249 8.92859 18.9236 9.00412C18.9222 9.07964 18.9361 9.15466 18.9644 9.22471C18.9927 9.29475 19.0348 9.35837 19.0882 9.41179C19.1416 9.4652 19.2053 9.50731 19.2753 9.5356C19.3453 9.56389 19.4204 9.57778 19.4959 9.57645C19.5714 9.57512 19.6459 9.55859 19.7149 9.52784C19.7839 9.4971 19.846 9.45277 19.8975 9.39751L22.1475 7.14751C22.2528 7.04204 22.312 6.89907 22.312 6.75001C22.312 6.60094 22.2528 6.45798 22.1475 6.35251L19.8975 4.10251C19.7909 4.00315 19.6498 3.94905 19.5041 3.95163C19.3584 3.9542 19.2193 4.01323 19.1163 4.11629C19.0132 4.21935 18.9542 4.35839 18.9516 4.50411C18.949 4.64984 19.0031 4.79088 19.1025 4.89751L20.3925 6.18751H18.8381C17.7932 6.18812 16.7634 6.43769 15.8341 6.91554C14.9048 7.39338 14.1028 8.08576 13.4944 8.93532L13.3856 9.09376C13.2995 9.21508 13.265 9.36555 13.2896 9.51226C13.3142 9.65897 13.3959 9.78996 13.5169 9.87657ZM10.4831 14.1234C10.3618 14.0367 10.2109 14.0017 10.0638 14.0261C9.91664 14.0505 9.78522 14.1324 9.69844 14.2538L9.58687 14.4103C9.0832 15.1141 8.4191 15.6877 7.64959 16.0837C6.88008 16.4797 6.0273 16.6867 5.16187 16.6875H3C2.85082 16.6875 2.70774 16.7468 2.60225 16.8523C2.49676 16.9577 2.4375 17.1008 2.4375 17.25C2.4375 17.3992 2.49676 17.5423 2.60225 17.6478C2.70774 17.7532 2.85082 17.8125 3 17.8125H5.16187C6.20682 17.8119 7.23658 17.5623 8.16587 17.0845C9.09515 16.6066 9.89721 15.9143 10.5056 15.0647L10.6172 14.9081C10.66 14.8478 10.6904 14.7797 10.7068 14.7076C10.7232 14.6355 10.7253 14.5609 10.7128 14.488C10.7004 14.4151 10.6737 14.3454 10.6343 14.2829C10.5949 14.2203 10.5435 14.1661 10.4831 14.1234Z" fill="black"/>
</svg>
